<svg width="24" height="25" viewBox="0 0 24 25" fill="none" xmlns="http://www.w3.org/2000/svg">
<path d="M11 17.5H13V13.5H17V11.5H13V7.5H11V11.5H7V13.5H11V17.5ZM12 22.5C10.6167 22.5 9.31667 22.2417 8.1 21.725C6.88333 21.1917 5.825 20.475 4.925 19.575C4.025 18.675 3.30833 17.6167 2.775 16.4C2.25833 15.1833 2 13.8833 2 12.5C2 11.1167 2.25833 9.81667 2.775 8.6C3.30833 7.38333 4.025 6.325 4.925 5.425C5.825 4.525 6.88333 3.81667 8.1 3.3C9.31667 2.76667 10.6167 2.5 12 2.5C13.3833 2.5 14.6833 2.76667 15.9 3.3C17.1167 3.81667 18.175 4.525 19.075 5.425C19.975 6.325 20.6833 7.38333 21.2 8.6C21.7333 9.81667 22 11.1167 22 12.5C22 13.8833 21.7333 15.1833 21.2 16.4C20.6833 17.6167 19.975 18.675 19.075 19.575C18.175 20.475 17.1167 21.1917 15.9 21.725C14.6833 22.2417 13.3833 22.5 12 22.5ZM12 20.5C14.2333 20.5 16.125 19.725 17.675 18.175C19.225 16.625 20 14.7333 20 12.5C20 10.2667 19.225 8.375 17.675 6.825C16.125 5.275 14.2333 4.5 12 4.5C9.76667 4.5 7.875 5.275 6.325 6.825C4.775 8.375 4 10.2667 4 12.5C4 14.7333 4.775 16.625 6.325 18.175C7.875 19.725 9.76667 20.5 12 20.5Z" fill="#717680"/>
</svg>